<svg width="110" height="120" viewBox="70 80 110 120" xmlns="http://www.w3.org/2000/svg"><rect x="80" y="90" width="10" height="10" fill="#7086f7" /><rect x="90" y="90" width="10" height="10" fill="#7086f7" /><rect x="100" y="90" width="10" height="10" fill="#7086f7" /><rect x="110" y="90" width="10" height="10" fill="#7086f7" /><rect x="120" y="90" width="10" height="10" fill="#7086f7" /><rect x="130" y="90" width="10" height="10" fill="#7086f7" /><rect x="140" y="90" width="10" height="10" fill="#7086f7" /><rect x="150" y="90" width="10" height="10" fill="#7086f7" /><rect x="160" y="90" width="10" height="10" fill="#7086f7" /><rect x="80" y="100" width="10" height="10" fill="#7086f7" /><rect x="160" y="100" width="10" height="10" fill="#7086f7" /><rect x="80" y="110" width="10" height="10" fill="#7086f7" /><rect x="160" y="110" width="10" height="10" fill="#7086f7" /><rect x="80" y="120" width="10" height="10" fill="#7086f7" /><rect x="160" y="120" width="10" height="10" fill="#7086f7" /><rect x="80" y="130" width="10" height="10" fill="#7086f7" /><rect x="110" y="130" width="10" height="10" fill="#7086f7" /><rect x="120" y="130" width="10" height="10" fill="#7086f7" /><rect x="130" y="130" width="10" height="10" fill="#7086f7" /><rect x="140" y="130" width="10" height="10" fill="#7086f7" /><rect x="150" y="130" width="10" height="10" fill="#7086f7" /><rect x="160" y="130" width="10" height="10" fill="#7086f7" /><rect x="80" y="140" width="10" height="10" fill="#7086f7" /><rect x="80" y="150" width="10" height="10" fill="#7086f7" /><rect x="80" y="160" width="10" height="10" fill="#7086f7" /><rect x="80" y="170" width="10" height="10" fill="#7086f7" /><rect x="80" y="180" width="10" height="10" fill="#7086f7" /><rect x="90" y="180" width="10" height="10" fill="#7086f7" /><rect x="100" y="180" width="10" height="10" fill="#7086f7" /><rect x="110" y="180" width="10" height="10" fill="#7086f7" /><rect x="120" y="180" width="10" height="10" fill="#7086f7" /><rect x="130" y="180" width="10" height="10" fill="#7086f7" /><rect x="140" y="180" width="10" height="10" fill="#7086f7" /><rect x="150" y="180" width="10" height="10" fill="#7086f7" /><rect x="160" y="180" width="10" height="10" fill="#7086f7" /></svg>